<svg id="Layer_1" data-name="Layer 1" xmlns="http://www.w3.org/2000/svg" viewBox="0 0 770.09 580.49" fill="white"><path d="M0,405.3V448c0,35.3,86,64,192,64s192-28.7,192-64V405.3C342.7,434.4,267.2,448,192,448S41.3,434.4,0,405.3ZM320,128c106,0,192-28.7,192-64S426,0,320,0,128,28.7,128,64,214,128,320,128ZM0,300.4V352c0,35.3,86,64,192,64s192-28.7,192-64V300.4c-41.3,34-116.9,51.6-192,51.6S41.3,334.4,0,300.4Zm416,11c57.3-11.1,96-31.7,96-55.4V213.3c-23.2,16.4-57.3,27.6-96,34.5ZM192,160C86,160,0,195.8,0,240s86,80,192,80,192-35.8,192-80S298,160,192,160Zm219.3,56.3c60-10.8,100.7-32,100.7-56.3V117.3c-35.5,25.1-96.5,38.6-160.7,41.8C380.8,173.4,402.5,192.6,411.3,216.3Z"/><path d="M565.61,576.38V463.07A4.11,4.11,0,0,0,561.5,459H447.23a4.11,4.11,0,0,1-4.11-4.11V379.17a4.11,4.11,0,0,1,4.11-4.11H561.5a4.12,4.12,0,0,0,4.11-4.12V257.63a4.11,4.11,0,0,1,4.11-4.11h73.44a4.11,4.11,0,0,1,4.11,4.11V370.94a4.13,4.13,0,0,0,4.12,4.12H766a4.11,4.11,0,0,1,4.11,4.11v75.67A4.11,4.11,0,0,1,766,459H651.39a4.12,4.12,0,0,0-4.12,4.12V576.38a4.11,4.11,0,0,1-4.11,4.11H569.72A4.11,4.11,0,0,1,565.61,576.38Z"/></svg>