<?xml version="1.0" encoding="utf-8"?>
<!-- Generator: Adobe Illustrator 24.1.2, SVG Export Plug-In . SVG Version: 6.00 Build 0)  -->
<svg version="1.1"
	 id="svg1326" xmlns:cc="http://web.resource.org/cc/" xmlns:dc="http://purl.org/dc/elements/1.1/" xmlns:inkscape="http://www.inkscape.org/namespaces/inkscape" xmlns:rdf="http://www.w3.org/1999/02/22-rdf-syntax-ns#" xmlns:sodipodi="http://inkscape.sourceforge.net/DTD/sodipodi-0.dtd" xmlns:svg="http://www.w3.org/2000/svg"
	 xmlns="http://www.w3.org/2000/svg" xmlns:xlink="http://www.w3.org/1999/xlink" x="0px" y="0px" viewBox="0 0 432.8 1723.7"
	 style="enable-background:new 0 0 432.8 1723.7;" xml:space="preserve">
<style type="text/css">
	.st0{stroke:#000000;stroke-width:1.8109;}
	.st1{fill-rule:evenodd;clip-rule:evenodd;fill:#FF0000;}
	.st2{fill:#FF0000;}
	.st3{fill-rule:evenodd;clip-rule:evenodd;stroke:#000000;stroke-width:0.8558;}
</style>
<sodipodi:namedview  bordercolor="#666666" borderopacity="1.0" gridoriginx="0.0000000in" gridoriginy="0.0000000in" gridspacingx="0.50000000in" gridspacingy="0.50000000in" gridtolerance="2.0000000px" id="base" inkscape:current-layer="layer1" inkscape:cx="513.21983" inkscape:cy="491.45341" inkscape:document-units="in" inkscape:grid-bbox="false" inkscape:grid-points="false" inkscape:guide-bbox="true" inkscape:pageopacity="0.0" inkscape:pageshadow="2" inkscape:window-height="880" inkscape:window-width="1280" inkscape:window-x="0" inkscape:window-y="0" inkscape:zoom="0.49497475" pagecolor="#ffffff" showgrid="false" showguides="true">
	</sodipodi:namedview>
<path id="rect3667" sodipodi:nodetypes="czcccczczc" class="st0" d="M184.8,187.8c-58.8-28.1-145.3,5.4-124.9,81
	c19.9,73.7,106.1,57.5,135.9,12.7c-12.4,85-34.3,98.3-47.3,116.7h138.9c-14.1-19.7-39.6-31.7-54.6-117.9
	c30,44.8,120.3,60.3,139.9-12.3c19.3-71.4-67.8-112.1-125.8-79.8c55.6-37.3,75.5-159.9-29.7-159.9
	C110.8,28.3,128.6,153.3,184.8,187.8z"/>
<path id="path2139" sodipodi:nodetypes="ccccc" class="st1" d="M216.7,460.8C178,525.2,134.4,587.1,90.2,646.6
	c46.3,59.5,90.6,121.4,126.5,185.8c37.3-65.6,78.1-128.2,126.5-185.8C296.2,587.1,253.3,523.9,216.7,460.8z"/>
<path id="path30" sodipodi:nodetypes="ccccccccccccccccccccc" class="st2" d="M213.8,1261.8c-0.3-0.6-1.8-5.1-3.3-9.9
	c-9.3-30.7-26.4-61.8-55.2-99.9c-10.8-14.3-21-27-48.5-60.4c-31.9-38.7-41-51.1-50.2-68.2c-5.4-10.1-11.1-25.5-12.9-35.3
	c-1.9-9.8-1.9-25.8-0.1-34.1c7.4-33.9,37.5-59.4,73.4-62.4c41.2-3.4,76.2,17.4,94.6,56.2l4.1,8.7l3.1-6.8c4.6-10.2,9-17.1,16.5-25.6
	c19-21.9,41.7-32.6,69-32.6c12.2,0,19.2,1,29.6,4.3c15.6,4.9,27.3,12.6,37.7,24.7c27.2,31.6,24,74.5-9.5,127.2
	c-7.8,12.3-21.9,30.5-41.3,53.2c-22.3,26.2-33.3,39.6-44.4,54.3c-26.8,35.2-44.8,67.3-54.7,97.2c-1.5,4.6-3.1,8.8-3.5,9.5
	C217.2,1263.3,214.6,1263.3,213.8,1261.8z"/>
<path id="path2076" sodipodi:nodetypes="cccccccc" class="st3" d="M114,1450c-122.1,124.7-2.4,215.2,94.1,155.6
	c-18.2,65-28.2,70.1-39.3,87.2H273c-13.4-17.3-27.4-22.2-41.7-86.8c98.5,56.6,202.4-42.1,93.1-156
	c-71.5-62.6-99.3-119.7-105.2-127.8C213.5,1329,180,1388.6,114,1450z"/>
</svg>
