<?xml version="1.0" encoding="utf-8"?>
<!-- Generator: Adobe Illustrator 24.1.2, SVG Export Plug-In . SVG Version: 6.00 Build 0)  -->
<svg version="1.1" id="Layer_1" focusable="false" xmlns="http://www.w3.org/2000/svg" xmlns:xlink="http://www.w3.org/1999/xlink"
	 x="0px" y="0px" viewBox="0 0 448 512" style="enable-background:new 0 0 448 512;" xml:space="preserve">
<style type="text/css">
	.st0{fill:#FFFFFF;}
</style>
<path class="st0" d="M448,431V79c0-26.5-19.1-48-42.8-48h-85.5C296.1,31,277,52.5,277,79v352c0,26.5,19.1,48,42.8,48h85.5
	C428.9,479,448,457.5,448,431z M171,432V80c0-26.5-19.1-48-42.8-48H42.8C19.1,32,0,53.5,0,80v352c0,26.5,19.1,48,42.8,48h85.5
	C151.9,480,171,458.5,171,432z"/>
</svg>
